<svg height="512pt" viewBox="0 0 512 512.01025" width="512pt" xmlns="http://www.w3.org/2000/svg"><path d="m503.472656 8.542969v494.933593h-494.933594l85.246094-155.050781 8.621094-15.617187 85.589844 78.507812 16.808594 15.359375 34.132812-59.730469 110.933594-119.46875 85.335937-170.667968 34.132813 34.136718zm0 0" fill="#ad1457"/><path d="m477.871094 85.34375v418.132812h-469.332032l85.246094-155.050781 85.421875 78.25 8.789063-15.359375 16.808594 15.359375 34.132812-59.730469 110.933594-119.46875 76.800781-153.601562 17.066406 17.070312 6.398438-19.203124 19.203125 19.203124zm0 0" fill="#e91e63"/><path d="m298.671875 349.875c-4.714844 0-8.535156-3.820312-8.535156-8.53125v-25.601562c0-4.710938 3.820312-8.53125 8.535156-8.53125 4.710937 0 8.535156 3.820312 8.535156 8.53125v25.601562c0 4.710938-3.824219 8.53125-8.535156 8.53125zm0 0" fill="#955ba5"/><path d="m264.539062 128.011719h68.265626c9.425781 0 17.066406 7.640625 17.066406 17.066406v204.796875c0 9.425781-7.640625 17.070312-17.066406 17.070312h-68.265626c-9.425781 0-17.066406-7.644531-17.066406-17.070312v-204.796875c0-9.425781 7.640625-17.066406 17.066406-17.066406zm0 0" fill="#607d8b"/><path d="m281.605469 93.875h34.132812c9.425781 0 17.066407 7.644531 17.066407 17.070312v17.066407h-68.265626v-17.066407c0-9.425781 7.640626-17.070312 17.066407-17.070312zm0 0" fill="#37474f"/><path d="m315.738281 179.210938c0 9.425781-7.640625 17.066406-17.066406 17.066406s-17.066406-7.640625-17.066406-17.066406c0-9.425782 7.640625-17.066407 17.066406-17.066407s17.066406 7.640625 17.066406 17.066407zm0 0" fill="#e91e63"/><path d="m315.738281 247.476562c0 9.425782-7.640625 17.066407-17.066406 17.066407s-17.066406-7.640625-17.066406-17.066407c0-9.425781 7.640625-17.066406 17.066406-17.066406s17.066406 7.640625 17.066406 17.066406zm0 0" fill="#ffb301"/><path d="m315.738281 315.742188c0 9.425781-7.640625 17.066406-17.066406 17.066406s-17.066406-7.640625-17.066406-17.066406c0-9.425782 7.640625-17.066407 17.066406-17.066407s17.066406 7.640625 17.066406 17.066407zm0 0" fill="#009688"/><g fill="#37474f"><path d="m349.871094 162.144531 21.785156-10.890625c2.644531-1.320312 5.785156-1.179687 8.300781.375 2.515625 1.554688 4.046875 4.296875 4.046875 7.253906v40.652344c0 2.957032-1.53125 5.703125-4.046875 7.257813-2.515625 1.550781-5.65625 1.695312-8.300781.371093l-21.785156-10.886718zm0 0"/><path d="m349.871094 230.410156 21.785156-10.886718c2.644531-1.324219 5.785156-1.183594 8.300781.371093 2.515625 1.554688 4.046875 4.300781 4.046875 7.257813v40.652344c0 2.953124-1.53125 5.699218-4.046875 7.253906-2.515625 1.554687-5.65625 1.695312-8.300781.375l-21.785156-10.890625zm0 0"/><path d="m349.871094 298.675781 21.785156-10.886719c2.644531-1.320312 5.785156-1.179687 8.300781.375 2.515625 1.550782 4.046875 4.296876 4.046875 7.253907v40.652343c0 2.957032-1.53125 5.699219-4.046875 7.253907-2.515625 1.554687-5.65625 1.695312-8.300781.375l-21.785156-10.890625zm0 0"/><path d="m247.472656 162.144531-21.785156-10.890625c-2.644531-1.320312-5.785156-1.179687-8.300781.375-2.515625 1.554688-4.046875 4.296875-4.046875 7.253906v40.652344c0 2.957032 1.53125 5.703125 4.046875 7.257813 2.515625 1.550781 5.65625 1.695312 8.300781.371093l21.785156-10.886718zm0 0"/><path d="m247.472656 230.410156-21.785156-10.886718c-2.644531-1.324219-5.785156-1.183594-8.300781.371093-2.515625 1.554688-4.046875 4.300781-4.046875 7.257813v40.652344c0 2.953124 1.53125 5.699218 4.046875 7.253906 2.515625 1.554687 5.65625 1.695312 8.300781.375l21.785156-10.890625zm0 0"/><path d="m247.472656 298.675781-21.785156-10.886719c-2.644531-1.320312-5.785156-1.179687-8.300781.375-2.515625 1.550782-4.046875 4.296876-4.046875 7.253907v40.652343c0 2.957032 1.53125 5.699219 4.046875 7.253907 2.515625 1.554687 5.65625 1.695312 8.300781.375l21.785156-10.890625zm0 0"/></g><path d="m509.496094 497.433594-34.132813-34.132813c-3.347656-3.234375-8.671875-3.1875-11.960937.105469-3.292969 3.292969-3.339844 8.613281-.105469 11.960938l19.574219 19.578124h-39.132813v-17.070312c0-4.710938-3.820312-8.53125-8.53125-8.53125-4.714843 0-8.535156 3.820312-8.535156 8.53125v17.070312h-17.066406v-17.070312c0-4.710938-3.820313-8.53125-8.535157-8.53125-4.710937 0-8.53125 3.820312-8.53125 8.53125v17.070312h-17.066406v-17.070312c0-4.710938-3.820312-8.53125-8.535156-8.53125-4.710938 0-8.53125 3.820312-8.53125 8.53125v17.070312h-17.066406v-17.070312c0-4.710938-3.820313-8.53125-8.535156-8.53125-4.710938 0-8.53125 3.820312-8.53125 8.53125v17.070312h-17.066407v-17.070312c0-4.710938-3.824219-8.53125-8.535156-8.53125-4.714844 0-8.535156 3.820312-8.535156 8.53125v17.070312h-267.492188l81.917969-156.425781 94.210938 94.191407c1.890624 1.890624 4.5625 2.785156 7.214843 2.417968 2.648438-.371094 4.972657-1.964844 6.273438-4.304687l34.691406-62.4375c4.726563 4.542969 11.027344 7.082031 17.585937 7.089843h25.597657v17.066407c0 4.714843 3.820312 8.535156 8.535156 8.535156 4.710937 0 8.535156-3.820313 8.535156-8.535156v-17.066407h25.597657c14.140624 0 25.601562-11.460937 25.601562-25.601562v-3.257812l9.386719 4.71875c5.289062 2.667968 11.585937 2.382812 16.613281-.75 5.042969-3.09375 8.109375-8.589844 8.089844-14.507813v-40.660156c0-5.496094-2.675782-10.644531-7.167969-13.808594 4.511719-3.152344 7.199219-8.304687 7.210937-13.804687v-40.652344c-.011718-5.503906-2.699218-10.65625-7.210937-13.808594 4.511719-3.152344 7.199219-8.304688 7.210937-13.808594v-18.3125l45.003907-90.007812 25.761719 25.761718c2.09375 2.089844 5.117187 2.945313 7.992187 2.265626 2.875-.679688 5.195313-2.800782 6.132813-5.601563l34.132812-102.402344c.960938-2.894531.308594-6.085937-1.71875-8.367187-2.027344-2.28125-5.117188-3.308594-8.105469-2.695313-2.992187.613281-5.425781 2.773438-6.390625 5.671875l-29.738281 89.300782-24.371094-24.371094c-1.941406-1.933594-4.691406-2.820313-7.394531-2.378906-2.703125.4375-5.03125 2.148437-6.257812 4.597656l-38.136719 76.269531c-4.699219-7.121094-14.011719-9.554687-21.597657-5.648437l-9.386718 4.71875v-3.257813c-.042969-10.8125-6.875-20.429687-17.066406-24.03125v-10.101563c0-14.140624-11.460938-25.601562-25.601563-25.601562h-34.191406c-14.140625 0-25.601563 11.460938-25.601563 25.601562v10.101563c-10.191406 3.601563-17.019531 13.21875-17.066406 24.03125v3.257813l-9.386719-4.71875c-5.292969-2.667969-11.59375-2.394532-16.640625.714843-5.042968 3.113281-8.113281 8.621094-8.105468 14.550781v40.652344c.011718 5.503906 2.699218 10.65625 7.210937 13.808594-4.511719 3.152344-7.199219 8.304688-7.210937 13.808594v11.792968h-34.132813c-4.714844 0-8.535156 3.820313-8.535156 8.53125 0 4.714844 3.820312 8.535157 8.535156 8.535157h34.132813v11.792969c.011718 5.5 2.699218 10.652343 7.210937 13.804687-4.511719 3.152344-7.199219 8.304687-7.210937 13.808594v40.652343c0 9.425782 7.640624 17.066407 17.066406 17.066407 2.667968 0 5.296875-.625 7.679687-1.816407l9.386719-4.703124v1.050781l-36.09375 64.972656-94.40625-94.398437c-1.917969-1.917969-4.636719-2.808594-7.320312-2.402344-2.683594.410156-5.011719 2.074218-6.273438 4.476562l-77.773438 148.480469v-212.785156h17.066407c4.714843 0 8.535156-3.820313 8.535156-8.535157 0-4.710937-3.820313-8.53125-8.535156-8.53125h-17.066407v-17.070312h17.066407c4.714843 0 8.535156-3.820312 8.535156-8.53125 0-4.714844-3.820313-8.535156-8.535156-8.535156h-17.066407v-17.066406h17.066407c4.714843 0 8.535156-3.820313 8.535156-8.53125 0-4.714844-3.820313-8.535157-8.535156-8.535157h-17.066407v-17.066406h17.066407c4.714843 0 8.535156-3.820313 8.535156-8.53125 0-4.714844-3.820313-8.535156-8.535156-8.535156h-17.066407v-17.066407h17.066407c4.714843 0 8.535156-3.820312 8.535156-8.53125 0-4.714843-3.820313-8.535156-8.535156-8.535156h-17.066407v-17.066406h17.066407c4.714843 0 8.535156-3.820312 8.535156-8.535156 0-4.710938-3.820313-8.53125-8.535156-8.53125h-17.066407v-39.132813l19.570313 19.566407c3.347656 3.234374 8.667969 3.1875 11.960937-.105469 3.289063-3.292969 3.335938-8.613281.101563-11.960938l-34.132813-34.132812c-2.4375-2.4414065-6.109374-3.171875-9.296874-1.851563-3.1875 1.320313-5.2656255 4.433594-5.26953175 7.882813v494.933593c.05078125.390626.12890575.773438.23046875 1.152344.054687.601563.175781 1.191406.359375 1.765625.210938.503907.472656.984375.777344 1.433594.25.476563.550781.921875.894531 1.332031.425781.429688.898437.816406 1.410156 1.144532.28125.265624.585938.507812.902344.734374.136719.066407.28125.09375.417969.152344.136718.058594.386718.144532.589844.222656.941406.371094 1.941406.574219 2.953124.597657h494.933594c1.117188-.007813 2.226563-.230469 3.257813-.660157 2.632812-1.089843 4.546875-3.421874 5.101562-6.21875.554688-2.792968-.320312-5.683593-2.335937-7.699218zm-287.625-270.28125 17.066406 8.53125v23.585937l-17.066406 8.535157zm17.066406-10.550782-6.519531-3.257812 6.519531-3.261719zm0 61.75v6.519532l-6.519531-3.261719zm136.535156-51.199218v40.652344l-17.066406-8.535157v-23.585937zm-17.066406 51.199218 6.519531 3.257813-6.519531 3.261719zm0-61.75v-6.519531l6.519531 3.261719zm17.066406 119.46875-17.066406-8.535156v-23.585937l17.066406-8.53125zm0-177.1875v40.652344l-17.066406-8.53125v-23.585937zm-102.402344-47.9375c0-4.714843 3.820313-8.535156 8.535157-8.535156h34.132812c4.714844 0 8.535157 3.820313 8.535157 8.535156v8.53125h-51.203126zm-17.066406 34.132813c0-4.714844 3.820313-8.535156 8.535156-8.535156h68.265626c4.714843 0 8.535156 3.820312 8.535156 8.535156v204.796875c0 4.714844-3.820313 8.535156-8.535156 8.535156h-68.265626c-4.714843 0-8.535156-3.820312-8.535156-8.535156zm-34.132812 13.804687 17.066406 8.535157v23.585937l-17.066406 8.53125zm0 177.1875v-40.652343l17.066406 8.53125v23.585937zm0 0"/><path d="m307.207031 59.742188v-25.597657c0-4.714843-3.824219-8.535156-8.535156-8.535156-4.714844 0-8.535156 3.820313-8.535156 8.535156v25.597657c0 4.714843 3.820312 8.535156 8.535156 8.535156 4.710937 0 8.535156-3.820313 8.535156-8.535156zm0 0"/><path d="m375.472656 85.34375c2.261719 0 4.433594-.898438 6.03125-2.5l12.800782-12.800781c2.21875-2.140625 3.109374-5.316407 2.328124-8.296875-.78125-2.984375-3.113281-5.316406-6.09375-6.097656-2.984374-.777344-6.15625.109374-8.300781 2.328124l-12.800781 12.800782c-2.4375 2.441406-3.167969 6.109375-1.847656 9.296875 1.320312 3.191406 4.429687 5.269531 7.882812 5.269531zm0 0"/><path d="m221.871094 85.34375c3.453125 0 6.5625-2.078125 7.882812-5.269531 1.320313-3.1875.589844-6.855469-1.847656-9.296875l-12.800781-12.800782c-2.144531-2.21875-5.316407-3.105468-8.300781-2.328124-2.980469.78125-5.3125 3.113281-6.09375 6.097656-.78125 2.980468.109374 6.15625 2.328124 8.296875l12.800782 12.800781c1.597656 1.601562 3.769531 2.5 6.03125 2.5zm0 0"/><path d="m85.339844 256.011719c4.710937 0 8.53125-3.820313 8.53125-8.535157 0-4.710937-3.820313-8.53125-8.53125-8.53125h-17.066406c-4.714844 0-8.535157 3.820313-8.535157 8.53125 0 4.714844 3.820313 8.535157 8.535157 8.535157zm0 0"/><path d="m136.539062 256.011719c4.710938 0 8.53125-3.820313 8.53125-8.535157 0-4.710937-3.820312-8.53125-8.53125-8.53125h-17.066406c-4.714844 0-8.535156 3.820313-8.535156 8.53125 0 4.714844 3.820312 8.535157 8.535156 8.535157zm0 0"/><path d="m298.671875 418.144531c-4.714844 0-8.535156 3.820313-8.535156 8.53125v17.066407c0 4.714843 3.820312 8.535156 8.535156 8.535156 4.710937 0 8.535156-3.820313 8.535156-8.535156v-17.066407c0-4.710937-3.824219-8.53125-8.535156-8.53125zm0 0"/><path d="m298.671875 204.808594c14.136719 0 25.601563-11.460938 25.601563-25.597656 0-14.140626-11.464844-25.601563-25.601563-25.601563s-25.601563 11.460937-25.601563 25.601563c0 14.136718 11.464844 25.597656 25.601563 25.597656zm0-34.132813c4.710937 0 8.535156 3.820313 8.535156 8.535157 0 4.710937-3.824219 8.53125-8.535156 8.53125-4.714844 0-8.535156-3.820313-8.535156-8.53125 0-4.714844 3.820312-8.535157 8.535156-8.535157zm0 0"/><path d="m298.671875 273.078125c14.136719 0 25.601563-11.460937 25.601563-25.601563 0-14.136718-11.464844-25.601562-25.601563-25.601562s-25.601563 11.464844-25.601563 25.601562c0 14.140626 11.464844 25.601563 25.601563 25.601563zm0-34.132813c4.710937 0 8.535156 3.820313 8.535156 8.53125 0 4.714844-3.824219 8.535157-8.535156 8.535157-4.714844 0-8.535156-3.820313-8.535156-8.535157 0-4.710937 3.820312-8.53125 8.535156-8.53125zm0 0"/><path d="m298.671875 341.34375c14.136719 0 25.601563-11.460938 25.601563-25.601562 0-14.136719-11.464844-25.597657-25.601563-25.597657s-25.601563 11.460938-25.601563 25.597657c0 14.140624 11.464844 25.601562 25.601563 25.601562zm0-34.132812c4.710937 0 8.535156 3.820312 8.535156 8.53125 0 4.714843-3.824219 8.535156-8.535156 8.535156-4.714844 0-8.535156-3.820313-8.535156-8.535156 0-4.710938 3.820312-8.53125 8.535156-8.53125zm0 0"/></svg>